<mxfile host="app.diagrams.net" modified="2020-11-19T13:16:21.067Z" agent="5.0 (Macintosh; Intel Mac OS X 10_15_7) AppleWebKit/537.36 (KHTML, like Gecko) Chrome/85.0.4183.102 Safari/537.36" etag="pYT-LVrQrGLRln88eI5G" version="13.9.9" type="github">
  <diagram id="g_4VtUBgBvtjZpwYIgzA" name="Page-1">
    <mxGraphModel dx="1298" dy="747" grid="1" gridSize="10" guides="1" tooltips="1" connect="1" arrows="1" fold="1" page="1" pageScale="1" pageWidth="827" pageHeight="1169" math="0" shadow="0">
      <root>
        <mxCell id="0" />
        <mxCell id="1" parent="0" />
        <mxCell id="GiL9B6fR1PtcW6BJxXmA-19" value="" style="rounded=0;whiteSpace=wrap;html=1;dashed=1;" vertex="1" parent="1">
          <mxGeometry x="60" y="390" width="660" height="260" as="geometry" />
        </mxCell>
        <mxCell id="GiL9B6fR1PtcW6BJxXmA-1" value="&lt;font style=&quot;font-size: 18px&quot;&gt;Kafka&lt;/font&gt;" style="rounded=1;whiteSpace=wrap;html=1;" vertex="1" parent="1">
          <mxGeometry x="160" y="190" width="100" height="50" as="geometry" />
        </mxCell>
        <mxCell id="GiL9B6fR1PtcW6BJxXmA-3" value="DSSM 模型" style="rounded=1;whiteSpace=wrap;html=1;" vertex="1" parent="1">
          <mxGeometry x="275" y="525" width="120" height="60" as="geometry" />
        </mxCell>
        <mxCell id="GiL9B6fR1PtcW6BJxXmA-4" value="用户相似表" style="shape=cylinder3;whiteSpace=wrap;html=1;boundedLbl=1;backgroundOutline=1;size=15;" vertex="1" parent="1">
          <mxGeometry x="490" y="405" width="60" height="80" as="geometry" />
        </mxCell>
        <mxCell id="GiL9B6fR1PtcW6BJxXmA-5" value="train data" style="shape=cylinder3;whiteSpace=wrap;html=1;boundedLbl=1;backgroundOutline=1;size=15;" vertex="1" parent="1">
          <mxGeometry x="275" y="410" width="60" height="70" as="geometry" />
        </mxCell>
        <mxCell id="GiL9B6fR1PtcW6BJxXmA-6" value="" style="endArrow=classic;html=1;exitX=0.5;exitY=1;exitDx=0;exitDy=0;exitPerimeter=0;entryX=0.25;entryY=0;entryDx=0;entryDy=0;" edge="1" parent="1" source="GiL9B6fR1PtcW6BJxXmA-5" target="GiL9B6fR1PtcW6BJxXmA-3">
          <mxGeometry width="50" height="50" relative="1" as="geometry">
            <mxPoint x="350" y="400" as="sourcePoint" />
            <mxPoint x="400" y="350" as="targetPoint" />
          </mxGeometry>
        </mxCell>
        <mxCell id="GiL9B6fR1PtcW6BJxXmA-11" value="train" style="edgeLabel;html=1;align=center;verticalAlign=middle;resizable=0;points=[];" vertex="1" connectable="0" parent="GiL9B6fR1PtcW6BJxXmA-6">
          <mxGeometry x="-0.1556" y="-2" relative="1" as="geometry">
            <mxPoint as="offset" />
          </mxGeometry>
        </mxCell>
        <mxCell id="GiL9B6fR1PtcW6BJxXmA-8" value="infer data" style="shape=cylinder3;whiteSpace=wrap;html=1;boundedLbl=1;backgroundOutline=1;size=15;" vertex="1" parent="1">
          <mxGeometry x="110" y="515" width="60" height="80" as="geometry" />
        </mxCell>
        <mxCell id="GiL9B6fR1PtcW6BJxXmA-9" value="" style="endArrow=classic;html=1;exitX=1;exitY=0.5;exitDx=0;exitDy=0;exitPerimeter=0;entryX=0;entryY=0.5;entryDx=0;entryDy=0;" edge="1" parent="1" source="GiL9B6fR1PtcW6BJxXmA-8" target="GiL9B6fR1PtcW6BJxXmA-3">
          <mxGeometry width="50" height="50" relative="1" as="geometry">
            <mxPoint x="350" y="400" as="sourcePoint" />
            <mxPoint x="400" y="350" as="targetPoint" />
          </mxGeometry>
        </mxCell>
        <mxCell id="GiL9B6fR1PtcW6BJxXmA-12" value="infer" style="edgeLabel;html=1;align=center;verticalAlign=middle;resizable=0;points=[];" vertex="1" connectable="0" parent="GiL9B6fR1PtcW6BJxXmA-9">
          <mxGeometry x="-0.1429" relative="1" as="geometry">
            <mxPoint as="offset" />
          </mxGeometry>
        </mxCell>
        <mxCell id="GiL9B6fR1PtcW6BJxXmA-10" value="30天活跃用户的行为数据" style="text;html=1;align=center;verticalAlign=middle;resizable=0;points=[];autosize=1;" vertex="1" parent="1">
          <mxGeometry x="65" y="600" width="150" height="20" as="geometry" />
        </mxCell>
        <mxCell id="GiL9B6fR1PtcW6BJxXmA-14" value="&lt;font style=&quot;font-size: 24px&quot;&gt;离线阶段&lt;/font&gt;" style="text;html=1;strokeColor=none;fillColor=none;align=center;verticalAlign=middle;whiteSpace=wrap;rounded=0;" vertex="1" parent="1">
          <mxGeometry x="80" y="410" width="100" height="20" as="geometry" />
        </mxCell>
        <mxCell id="GiL9B6fR1PtcW6BJxXmA-15" value="user embedding" style="shape=cylinder3;whiteSpace=wrap;html=1;boundedLbl=1;backgroundOutline=1;size=15;" vertex="1" parent="1">
          <mxGeometry x="490" y="515" width="60" height="80" as="geometry" />
        </mxCell>
        <mxCell id="GiL9B6fR1PtcW6BJxXmA-17" value="" style="endArrow=classic;html=1;entryX=0;entryY=0.5;entryDx=0;entryDy=0;entryPerimeter=0;exitX=1;exitY=0.5;exitDx=0;exitDy=0;" edge="1" parent="1" source="GiL9B6fR1PtcW6BJxXmA-3" target="GiL9B6fR1PtcW6BJxXmA-15">
          <mxGeometry width="50" height="50" relative="1" as="geometry">
            <mxPoint x="350" y="390" as="sourcePoint" />
            <mxPoint x="400" y="340" as="targetPoint" />
          </mxGeometry>
        </mxCell>
        <mxCell id="GiL9B6fR1PtcW6BJxXmA-18" value="" style="endArrow=classic;html=1;exitX=0.5;exitY=0;exitDx=0;exitDy=0;exitPerimeter=0;entryX=0.5;entryY=1;entryDx=0;entryDy=0;entryPerimeter=0;" edge="1" parent="1" source="GiL9B6fR1PtcW6BJxXmA-15" target="GiL9B6fR1PtcW6BJxXmA-4">
          <mxGeometry width="50" height="50" relative="1" as="geometry">
            <mxPoint x="405" y="565" as="sourcePoint" />
            <mxPoint x="599" y="555" as="targetPoint" />
          </mxGeometry>
        </mxCell>
      </root>
    </mxGraphModel>
  </diagram>
</mxfile>
